<?xml version="1.0" encoding="UTF-8"?>
<svg id="Layer_2" data-name="Layer 2" xmlns="http://www.w3.org/2000/svg" viewBox="0 0 387.22 550.43">
  <defs>
    <style>
      .cls-1 {
        fill: #fff;
      }
    </style>
  </defs>
  <g id="Layer_1-2" data-name="Layer 1">
    <path class="cls-1" d="M381.66,413.64c-21.78,74.77-87.73,125.97-164.28,135.24-89.36,10.82-185.59-35.57-217.38-122.29h100.45c14.56,15.15,32.95,26.93,53.09,33.23,48.73,15.25,103.31-3.93,131.5-46.19h96.61Z"/>
    <path class="cls-1" d="M295.83,318.64c-2.56-7.87-5.96-15.5-10.35-22.51-32.95-52.62-107.04-58.06-159.55-34.04l-20.44,10.96,13.05-83.38c32.36-24.14,75.17-27.45,114.18-22.1,77.61,10.64,136.33,63.45,152.64,140.41.5,2.37,1.85,7.61,1.87,9.67,0,.57-.05.63-.53.99h-90.86Z"/>
    <polygon class="cls-1" points="342.82 .05 342.82 84.73 342.1 85.45 137.61 85.45 73.84 .05 342.82 .05"/>
    <path class="cls-1" d="M127.54,85.45l-1.47.26-14.61,96.16-81.72,45.12L61.89.09c1.18-.3,2.18.16,2.83,1.16l62.82,84.19Z"/>
    <path class="cls-1" d="M21.1,291.29c1.4-18.29,4.58-36.45,7.32-54.57l81.38-44.75-13.43,88.4-12.69,10.92H21.1Z"/>
    <path class="cls-1" d="M336.96,325.97c36.94-4.17,61.02,38.02,36.31,66.57-22.77,26.31-66.46,13.03-70.72-21.36-2.62-21.13,12.79-42.76,34.41-45.2ZM339.84,334.61c-24.83,2.26-37.48,32-21.46,51.42,14.2,17.22,41.91,14.44,52.18-5.33,11.45-22.03-6.08-48.33-30.72-46.09Z"/>
    <path class="cls-1" d="M206.65,405.48v-78.69h27.57c4.23,0,12.9,3.21,16.69,5.37,23.14,13.22,23.75,52.74,1.45,67-13.68,8.74-30.28,5.83-45.71,6.32ZM215.28,396.36h18.94c1.76,0,6.73-1.7,8.56-2.47,27.54-11.56,19.96-58.47-11.44-58.47h-15.34l-.72.72v60.22Z"/>
    <path class="cls-1" d="M141.44,326.79v51.1c0,9.93,9.98,19.85,19.9,19.95,9.23.1,20.37-9.05,20.37-18.51v-52.54h9.11v52.06c0,12.64-12.57,26.42-25.18,27.58-20.6,1.9-32.25-12.53-33.34-31.88-.88-15.62.7-32.06.02-47.76h9.11Z"/>
    <path class="cls-1" d="M51.79,344.06c-3.78-11.03-22-12.91-28.77-4.08-11.34,14.79,15.66,20.21,24.3,24.62,11.82,6.04,20.17,16.76,12.05,29.98-9.32,15.15-35.7,15.5-47.38,2.98-.78-.84-3.62-4.52-3.76-5.4-.3-1.88,5.18-4.38,6.41-5.89,5.03,8.66,15.05,12.64,24.81,10.91,13.02-2.3,20.01-14.79,7.14-23.21s-39.43-10.21-34.44-31.94c4.71-20.55,39.8-22.39,46.64-2.29l-6.98,4.31Z"/>
    <polygon class="cls-1" points="122.74 326.79 122.74 335.43 99.73 335.43 99.73 405.48 91.1 405.48 91.1 336.15 90.38 335.43 68.08 335.43 68.08 326.79 122.74 326.79"/>
    <polygon class="cls-1" points="290.08 326.79 290.08 404.76 289.36 405.48 280.97 405.48 280.97 326.79 290.08 326.79"/>
  </g>
</svg>