<?xml version="1.0" encoding="UTF-8"?>
<svg id="Layer_1" xmlns="http://www.w3.org/2000/svg" version="1.1" viewBox="0 0 432 585.84">
  <!-- Generator: Adobe Illustrator 30.0.0, SVG Export Plug-In . SVG Version: 2.1.1 Build 123)  -->
  <defs>
    <style>
      .st0 {
        display: none;
      }

      .st0, .st1 {
        fill: #fff;
      }
    </style>
  </defs>
  <path class="st0" d="M-122,7v585.84h-432V7H-122ZM-403.44598,108.71672l-62.82073-84.19468c-.65072-1.00428-1.64088-1.46351-2.82575-1.16493l-32.16126,226.9032,81.72404-45.12175,14.61069-96.16075,1.47301-.26109ZM-188.16648,23.31332h-268.98113l63.76915,85.40501h204.49279l.7192-.71971V23.31332ZM-235.15427,341.9028h90.85905c.47669-.35854.53635-.41587.53028-.98697-.02184-2.05404-1.3661-7.29656-1.86868-9.66877-16.30591-76.96463-75.0326-129.77853-152.63869-140.41419-39.00979-5.34617-81.81863-2.03663-114.18103,22.10139l-13.04757,83.38415,20.44315-10.96472c52.50985-24.021,126.60873-18.58373,159.55441,34.03893,4.3873,7.00763,7.78939,14.64002,10.3491,22.51018ZM-509.88901,314.554h62.57048l12.69295-10.92411,13.4332-88.3951-81.38027,44.74623c-2.73603,18.12592-5.92049,36.28688-7.31635,54.57298ZM-479.19608,367.33172l6.98068-4.30837c-6.84279-20.10191-41.92578-18.25503-46.64058,2.29288-4.98562,21.72818,21.72427,23.62544,34.44053,31.94202,12.87847,8.42267,5.88425,20.90903-7.13565,23.21091-9.76141,1.72579-19.78021-2.24754-24.80757-10.91151-1.22951,1.50976-6.71165,4.00415-6.41443,5.88618.13836.87611,2.98322,4.56219,3.76314,5.39771,11.68008,12.51293,38.06805,12.16884,47.38345-2.98484,8.1252-13.21754-.22814-23.94288-12.04581-29.97857-8.63794-4.41169-35.63283-9.83006-24.29679-24.62204,6.77367-8.83871,24.99797-6.95299,28.77303,4.07562ZM-194.027,349.23277c-21.61619,2.43874-37.02861,24.06925-34.40963,45.20335,4.26242,34.39608,47.94871,47.66932,70.72195,21.36204,24.70944-28.54395.62659-70.73284-36.31231-66.56539ZM-408.24195,350.05946h-54.65927v8.63646h22.29523l.7192.71971v69.3316h8.63041v-70.0513h23.01443v-8.63646ZM-389.54273,350.05946h-9.10988c.67591,15.6999-.89662,32.14304-.01985,47.76031,1.08603,19.34458,12.73307,33.77627,33.33508,31.87933,12.6138-1.16142,25.17977-14.94576,25.17977-27.58096v-52.05867h-9.10988v52.53848c0,9.46387-11.14305,18.60993-20.37429,18.51301-9.91795-.10414-19.90096-10.01923-19.90096-19.95242v-51.09907ZM-324.33518,428.74722c15.42101-.49156,32.02568,2.42241,45.7052-6.32143,22.29984-14.25388,21.68994-53.77462-1.44757-66.99534-3.78712-2.16395-12.45521-5.371-16.68826-5.371h-27.56937v78.68776ZM-240.90788,350.05946h-9.10988v78.68776h8.39068l.7192-.71971v-77.96806ZM-149.32963,436.90388h-96.61265c-28.19693,42.25768-82.7674,61.43997-131.50194,46.18913-20.14001-6.30255-38.52953-18.08587-53.09296-33.23443h-100.44839c31.78718,86.72368,128.02271,133.11498,217.37875,122.29018,76.54806-9.2732,142.49787-60.47238,164.27719-135.24488Z"/>
  <path class="st1" d="M-149.32963,436.90388c-21.77931,74.77249-87.72912,125.97167-164.27719,135.24488-89.35604,10.82479-185.59158-35.56651-217.37875-122.29018h100.44839c14.56343,15.14857,32.95295,26.93188,53.09296,33.23443,48.73453,15.25084,103.30501-3.93145,131.50194-46.18913h96.61265Z"/>
  <path class="st1" d="M-235.15427,341.9028c-2.55971-7.87017-5.9618-15.50255-10.3491-22.51018-32.94568-52.62266-107.04456-58.05993-159.55441-34.03893l-20.44315,10.96472,13.04757-83.38415c32.36241-24.13802,75.17124-27.44755,114.18103-22.10139,77.60609,10.63566,136.33278,63.44956,152.63869,140.41419.50258,2.37221,1.84685,7.61473,1.86868,9.66877.00607.5711-.05358.62843-.53028.98697h-90.85905Z"/>
  <polygon class="st1" points="-188.16648 23.31332 -188.16648 107.99862 -188.88568 108.71833 -393.37847 108.71833 -457.14761 23.31332 -188.16648 23.31332"/>
  <path class="st1" d="M-403.44598,108.71672l-1.47301.26109-14.61069,96.16075-81.72404,45.12175,32.16126-226.9032c1.18487-.29858,2.17502.16065,2.82575,1.16493l62.82073,84.19468Z"/>
  <path class="st1" d="M-509.88901,314.554c1.39587-18.2861,4.58033-36.44706,7.31635-54.57298l81.38027-44.74623-13.4332,88.3951-12.69295,10.92411h-62.57048Z"/>
  <path class="st1" d="M-194.027,349.23277c36.93891-4.16745,61.02176,38.02144,36.31231,66.56539-22.77324,26.30728-66.45953,13.03404-70.72195-21.36204-2.61897-21.13411,12.79344-42.76461,34.40963-45.20335ZM-191.14221,357.87674c-24.83163,2.25927-37.48476,31.99649-21.4629,51.42423,14.20414,17.22362,41.90735,14.43784,52.17947-5.33193,11.44556-22.02819-6.07764-48.33404-30.71657-46.0923Z"/>
  <path class="st1" d="M-324.33518,428.74722v-78.68776h27.56937c4.23305,0,12.90113,3.20705,16.68826,5.371,23.13751,13.22071,23.74741,52.74145,1.44757,66.99534-13.67952,8.74384-30.28419,5.82987-45.7052,6.32143ZM-315.70477,419.63096h18.93896c1.76067,0,6.72906-1.69768,8.56239-2.46708,27.53547-11.55599,19.96201-58.46795-11.43919-58.46795h-15.34295l-.7192.71971v60.21533Z"/>
  <path class="st1" d="M-389.54273,350.05946v51.09907c0,9.93319,9.98301,19.84828,19.90096,19.95242,9.23124.09693,20.37429-9.04914,20.37429-18.51301v-52.53848h9.10988v52.05867c0,12.6352-12.56597,26.41953-25.17977,27.58096-20.60202,1.89695-32.24906-12.53475-33.33508-31.87933-.87677-15.61727.69576-32.06041.01985-47.76031h9.10988Z"/>
  <path class="st1" d="M-479.19608,367.33172c-3.77505-11.02861-21.99936-12.91433-28.77303-4.07562-11.33604,14.79198,15.65885,20.21035,24.29679,24.62204,11.81767,6.03568,20.171,16.76103,12.04581,29.97857-9.3154,15.15368-35.70338,15.49777-47.38345,2.98484-.77991-.83552-3.62477-4.5216-3.76314-5.39771-.29723-1.88204,5.18492-4.37642,6.41443-5.88618,5.02737,8.66397,15.04617,12.6373,24.80757,10.91151,13.0199-2.30188,20.01412-14.78824,7.13565-23.21091-12.71627-8.31658-39.42615-10.21385-34.44053-31.94202,4.7148-20.54791,39.79779-22.39479,46.64058-2.29288l-6.98068,4.30837Z"/>
  <polygon class="st1" points="-408.24195 350.05946 -408.24195 358.69592 -431.25638 358.69592 -431.25638 428.74722 -439.88679 428.74722 -439.88679 359.41563 -440.60599 358.69592 -462.90122 358.69592 -462.90122 350.05946 -408.24195 350.05946"/>
  <polygon class="st1" points="-240.90788 350.05946 -240.90788 428.02752 -241.62708 428.74722 -250.01776 428.74722 -250.01776 350.05946 -240.90788 350.05946"/>
  <path class="st0" d="M-191.14221,357.87674c24.63893-2.24174,42.16212,24.06411,30.71657,46.0923-10.27211,19.76977-37.97532,22.55554-52.17947,5.33193-16.02186-19.42774-3.36873-49.16496,21.4629-51.42423Z"/>
  <path class="st0" d="M-315.70477,419.63096v-60.21533l.7192-.71971h15.34295c31.4012,0,38.97467,46.91197,11.43919,58.46795-1.83333.7694-6.80172,2.46708-8.56239,2.46708h-18.93896Z"/>
</svg>